# xmcd
# 
# Track frame offsets:
#     150
#     21911
#     35742
#     53537
#     63785
#     86195
#     100520
#     115968
#     128738
#     138294
# 
# Disc length: 2077
# 
# Revision: 2
# Processed by: cddbd v1.5.2PL0 Copyright (c) Steve Scherf et al.
# Submitted via: fre:ac v1.0.17
# 
DISCID=7e081b0a
DTITLE=Buckner Richard - Dents And Shells
DYEAR=2004
DGENRE=Indie
TTITLE0=A Chance Counsel
TTITLE1=Firsts
TTITLE2=Invitation
TTITLE3=Straight
TTITLE4=Her
TTITLE5=Charmers
TTITLE6=Fuse
TTITLE7=Rafters
TTITLE8=Picture Day
TTITLE9=As The Waves Will Always Roll
EXTD=
EXTT0=
EXTT1=
EXTT2=
EXTT3=
EXTT4=
EXTT5=
EXTT6=
EXTT7=
EXTT8=
EXTT9=
PLAYORDER=
